<svg width="1015" height="205" viewBox="0 0 1015 205" fill="none" xmlns="http://www.w3.org/2000/svg">
<path d="M118.36 1.84998H118.22L119.27 3.10997C123.78 8.75997 127.85 16.73 131.27 26.82C138.13 47.11 141.91 74.02 141.91 102.59C141.91 131.16 138.13 158.06 131.27 178.35C127.85 188.44 123.78 196.41 119.27 202.05C118.917 202.503 118.557 202.933 118.19 203.34H118.25C148.42 192.6 170.82 151.51 170.82 102.6C170.82 53.69 148.48 12.69 118.36 1.87997" fill="#FF4815"/>
<path d="M134.46 102.59C134.46 74.78 130.84 48.69 124.27 29.12C118.27 11.29 110.22 0.660025 102.6 0.650025C77.4499 0.647686 53.1866 9.9426 34.4751 26.7477C15.7637 43.5528 3.92498 66.6817 1.23519 91.6876C-1.45461 116.694 5.1944 141.811 19.9038 162.211C34.6132 182.611 56.3447 196.854 80.92 202.2L82.44 195.2C59.5993 190.226 39.4031 176.985 25.7336 158.022C12.064 139.06 5.88599 115.714 8.38695 92.4718C10.8879 69.2299 21.8914 47.7327 39.2823 32.1123C56.6731 16.4919 79.224 7.8508 102.6 7.85004V57.18C92.5985 57.1958 82.8815 60.5109 74.9559 66.6113C67.0302 72.7116 61.3386 81.2564 58.7635 90.9208C56.1885 100.585 56.8739 110.829 60.7135 120.064C64.553 129.299 71.3323 137.01 80 142L83.59 135.76C80.6676 134.078 77.9781 132.02 75.59 129.64C70.2483 124.296 66.6104 117.489 65.136 110.078C63.6615 102.668 64.4167 94.9862 67.3061 88.0046C70.1955 81.023 75.0894 75.0545 81.3695 70.8532C87.6496 66.6518 95.0341 64.4062 102.59 64.4V169.1C86.7076 169.09 71.3533 163.396 59.3047 153.048C47.2561 142.7 39.3089 128.381 36.9008 112.683C34.4928 96.9838 37.7829 80.9416 46.176 67.458C54.5691 53.9744 67.5108 43.94 82.66 39.17L80.5 32.3C63.6955 37.5729 49.3353 48.6901 40.0207 63.6378C30.7061 78.5854 27.0532 96.3749 29.7237 113.784C32.3943 131.192 41.2116 147.069 54.5785 158.537C67.9454 170.005 84.9777 176.307 102.59 176.3V204.5C110.21 204.5 118.27 193.86 124.26 176.04C130.83 156.48 134.45 130.39 134.45 102.59" fill="#FF4815"/>
<path d="M142.72 8.82996C147.876 13.6455 152.453 19.0452 156.36 24.92C170.36 45.71 178.03 73.28 178.03 102.57C178.03 131.86 170.33 159.41 156.36 180.2C152.445 186.092 147.85 191.503 142.67 196.32C161.015 188.459 176.652 175.389 187.641 158.729C198.631 142.068 204.492 122.55 204.497 102.591C204.502 82.6329 198.652 63.1113 187.671 46.4451C176.69 29.7789 161.061 16.7005 142.72 8.82996" fill="#FF4815"/>
<path d="M299.78 62.9C299.78 79.33 287.23 89.52 273.08 89.52C258.93 89.52 246.39 79.33 246.39 62.9C246.39 46.47 259.15 36.34 273.08 36.34C287.01 36.34 299.78 46.46 299.78 62.9ZM273.08 83.56C283.83 83.56 293.08 76.14 293.08 62.9C293.08 49.66 283.58 42.37 273.08 42.37C262.58 42.37 253.08 49.65 253.08 62.9C253.08 76.15 262.47 83.56 273.08 83.56Z" fill="#1D1D1B"/>
<path d="M314.06 52.43V58.6C315.125 56.4927 316.764 54.7294 318.788 53.5139C320.813 52.2983 323.139 51.6798 325.5 51.73C326.362 51.7154 327.222 51.8095 328.06 52.01V58.53C326.995 58.2526 325.9 58.1115 324.8 58.11C318.63 58.11 314.06 61.65 314.06 71.01V88.48H307.68V52.43H314.06Z" fill="#1D1D1B"/>
<path d="M369.11 52.43V87.58C369.11 97.91 361.9 104.43 350.39 104.43C341.09 104.43 334.99 100.82 332.22 93.75L337.77 90.01C339.64 95.9 343.87 98.88 350.39 98.88C358.01 98.88 362.73 94.38 362.73 87.23V81.9C361.182 83.8204 359.214 85.36 356.978 86.4002C354.741 87.4404 352.296 87.9535 349.83 87.9C338.88 87.9 331.83 79.79 331.83 69.59C331.83 59.39 338.83 51.22 349.83 51.22C352.306 51.1693 354.759 51.6938 356.998 52.7523C359.236 53.8108 361.198 55.3744 362.73 57.32V52.4L369.11 52.43ZM350.87 82.1C358.43 82.1 362.94 76.63 362.94 69.62C362.94 62.61 358.43 57.07 350.87 57.07C343.04 57.07 338.39 62.62 338.39 69.62C338.39 76.62 343 82.1 350.87 82.1Z" fill="#1D1D1B"/>
<path d="M414.86 80.51L415.86 88.51H410.17L408.71 82.76C405.8 86.85 401.16 89.5499 394.85 89.5499C383.85 89.5499 376.61 81.16 376.61 70.48C376.61 59.8 383.82 51.28 394.85 51.28C397.466 51.187 400.067 51.7244 402.432 52.8469C404.797 53.9695 406.858 55.6442 408.44 57.73V52.46H414.81L414.86 80.51ZM395.94 83.7C403.63 83.7 408.69 77.94 408.69 70.45C408.69 62.96 403.63 57.07 395.94 57.07C387.94 57.07 383.18 62.97 383.18 70.45C383.18 77.93 388 83.7 395.94 83.7Z" fill="#1D1D1B"/>
<path d="M431.23 52.4301V57.5601C433.72 53.4001 437.6 51.3201 443.15 51.3201C451.89 51.3201 456.88 56.8601 456.88 66.2301V88.4801H450.5V67.2001C450.5 60.4701 447.5 57.1401 441.69 57.1401C435.18 57.1401 431.23 61.4401 431.23 69.0701V88.4801H424.85V52.4301H431.23Z" fill="#1D1D1B"/>
<path d="M472.68 52.4299V88.4799H466.31V52.4299H472.68Z" fill="#1D1D1B"/>
<path d="M510.82 61.79L504.72 64.08C504.44 59.43 501.18 56.52 495.72 56.52C490.8 56.52 487.89 58.88 487.89 61.93C487.89 70.45 511.32 64.35 511.32 78.5C511.32 85.57 505.32 89.5 496.32 89.5C487.03 89.5 481.2 84.93 480.09 78.41L486.33 75.77C486.61 81.25 490.49 84.23 496.33 84.23C500.9 84.23 504.44 82.64 504.44 78.89C504.44 70.43 481.28 76.75 481.28 62.32C481.28 55.87 487.87 51.23 495.7 51.23C504.09 51.25 509.92 55.48 510.82 61.79Z" fill="#1D1D1B"/>
<path d="M555 80.51L556 88.51H550.32L548.86 82.76C545.95 86.85 541.3 89.55 534.99 89.55C523.99 89.55 516.76 81.16 516.76 70.48C516.76 59.8 523.97 51.28 534.99 51.28C537.607 51.1845 540.208 51.7208 542.574 52.8435C544.939 53.9663 546.999 55.6424 548.58 57.73V52.46H555V80.51ZM536.07 83.7C543.77 83.7 548.83 77.94 548.83 70.45C548.83 62.96 543.77 57.07 536.07 57.07C528.07 57.07 523.32 62.97 523.32 70.45C523.32 77.93 528.08 83.7 536.05 83.7H536.07Z" fill="#1D1D1B"/>
<path d="M574.46 41.61V52.43H584.79V58.11H574.46V77.87C574.46 82.8 576.46 83.56 580.36 83.56C581.618 83.4956 582.868 83.3318 584.1 83.07V88.69C582.566 89.1197 580.983 89.3516 579.39 89.38C572.11 89.38 568.09 86.47 568.09 78.71V58.11H561.71V52.43H568.09V41.61H574.46Z" fill="#1D1D1B"/>
<path d="M598.66 52.4299V88.4799H592.28V52.4299H598.66Z" fill="#1D1D1B"/>
<path d="M644.84 70.39C644.84 81.69 636.38 89.52 625.49 89.52C614.6 89.52 606.28 81.69 606.28 70.39C606.28 59.09 614.68 51.25 625.49 51.25C636.3 51.25 644.84 59.08 644.84 70.39ZM625.49 83.63C632.91 83.63 638.25 78.43 638.25 70.39C638.25 62.35 632.91 57.14 625.49 57.14C618.07 57.14 612.8 62.41 612.8 70.39C612.8 78.37 618.21 83.63 625.49 83.63Z" fill="#1D1D1B"/>
<path d="M658.7 52.4301V57.5601C661.2 53.4001 665.08 51.3201 670.63 51.3201C679.36 51.3201 684.35 56.8601 684.35 66.2301V88.4801H678V67.2001C678 60.4701 675 57.1401 669.19 57.1401C662.67 57.1401 658.72 61.4401 658.72 69.0701V88.4801H652.34V52.4301H658.7Z" fill="#1D1D1B"/>
<path d="M715.62 52.43V57.43C716.655 55.4988 718.211 53.8968 720.112 52.8061C722.012 51.7154 724.18 51.1797 726.37 51.26C728.677 51.1622 730.962 51.7405 732.944 52.9237C734.927 54.1068 736.521 55.8434 737.53 57.92C739.61 54.1 743.7 51.26 749.46 51.26C757.15 51.26 762.21 56.11 762.21 65.19V88.49H755.84V66.43C755.84 60.05 752.99 57.07 747.93 57.07C742.04 57.07 738.93 61.23 738.93 68.07V88.52H732.55V66.57C732.55 60.05 729.64 57.07 724.71 57.07C718.71 57.07 715.71 61.79 715.63 68.93V88.48H709.25V52.43H715.62Z" fill="#1D1D1B"/>
<path d="M808 70.39C808 81.69 799.54 89.52 788.66 89.52C777.78 89.52 769.45 81.69 769.45 70.39C769.45 59.09 777.84 51.25 788.66 51.25C799.48 51.25 808 59.08 808 70.39ZM788.66 83.63C796.08 83.63 801.42 78.43 801.42 70.39C801.42 62.35 796.08 57.14 788.66 57.14C781.24 57.14 775.97 62.41 775.97 70.39C775.97 78.37 781.35 83.63 788.63 83.63H788.66Z" fill="#1D1D1B"/>
<path d="M821.84 52.4301V57.5601C824.33 53.4001 828.22 51.3201 833.76 51.3201C842.5 51.3201 847.49 56.8601 847.49 66.2301V88.4801H841.11V67.2001C841.11 60.4701 838.11 57.1401 832.31 57.1401C825.79 57.1401 821.84 61.4401 821.84 69.0701V88.4801H815.46V52.4301H821.84Z" fill="#1D1D1B"/>
<path d="M892.9 80.51L893.9 88.51H888.22L886.76 82.76C883.85 86.85 879.2 89.55 872.89 89.55C861.89 89.55 854.66 81.16 854.66 70.48C854.66 59.8 861.87 51.28 872.89 51.28C875.507 51.1845 878.108 51.7208 880.474 52.8435C882.839 53.9663 884.899 55.6424 886.48 57.73V37.52H892.86L892.9 80.51ZM874 83.7C881.7 83.7 886.76 77.94 886.76 70.45C886.76 62.96 881.7 57.07 874 57.07C866 57.07 861.25 62.97 861.25 70.45C861.25 77.93 866 83.7 874 83.7Z" fill="#1D1D1B"/>
<path d="M909.4 52.4299V88.4799H903V52.4299H909.4Z" fill="#1D1D1B"/>
<path d="M955.23 80.51L956.23 88.51H950.55L949.09 82.76C946.18 86.85 941.53 89.55 935.22 89.55C924.22 89.55 916.99 81.16 916.99 70.48C916.99 59.8 924.2 51.28 935.22 51.28C937.836 51.1862 940.437 51.7232 942.802 52.8458C945.168 53.9684 947.228 55.6436 948.81 57.73V52.46H955.19L955.23 80.51ZM936.3 83.7C944 83.7 949.06 77.94 949.06 70.45C949.06 62.96 944 57.07 936.3 57.07C928.3 57.07 923.55 62.97 923.55 70.45C923.55 77.93 928.33 83.7 936.3 83.7Z" fill="#1D1D1B"/>
<path d="M971.94 37.52V88.52H965.56V37.52H971.94Z" fill="#1D1D1B"/>
<path d="M1014.93 69.83C1014.95 70.7322 1014.9 71.6347 1014.79 72.53H986.43C987.19 80.16 992.04 83.98 998.28 83.98C1003.83 83.98 1007.58 81.69 1009.66 76.9L1014.44 80.99C1011.18 86.89 1004.66 89.52 998.15 89.52C987.15 89.52 979.84 81.69 979.84 70.52C979.84 59.35 987.33 51.25 997.66 51.25C1008.41 51.25 1014.93 58.81 1014.93 69.83ZM1008.06 67.54C1008.06 60.96 1003.9 56.86 997.52 56.86C992.11 56.86 987.52 60.47 986.52 67.54H1008.06Z" fill="#1D1D1B"/>
<path d="M284.25 159L285.25 167H279.6L278.14 161.25C275.23 165.34 270.59 168.04 264.28 168.04C253.28 168.04 246.04 159.65 246.04 148.97C246.04 138.29 253.25 129.77 264.28 129.77C266.896 129.677 269.497 130.214 271.862 131.337C274.227 132.46 276.288 134.134 277.87 136.22V116H284.25V159ZM265.32 162.19C273.01 162.19 278.08 156.43 278.08 148.94C278.08 141.45 273.01 135.56 265.32 135.56C257.32 135.56 252.56 141.46 252.56 148.94C252.56 156.42 257.34 162.2 265.32 162.2V162.19Z" fill="#1D1D1B"/>
<path d="M327.23 148.33C327.25 149.232 327.203 150.135 327.09 151.03H298.73C299.5 158.66 304.35 162.48 310.59 162.48C316.14 162.48 319.88 160.19 321.96 155.4L326.75 159.49C323.49 165.39 316.97 168.02 310.45 168.02C299.45 168.02 292.15 160.19 292.15 149.02C292.15 138.02 299.64 129.75 309.97 129.75C320.71 129.75 327.23 137.31 327.23 148.33ZM320.37 146C320.37 139.42 316.21 135.32 309.83 135.32C304.42 135.32 299.83 138.93 298.83 146H320.37Z" fill="#1D1D1B"/>
<path d="M357.53 116V167H351.15V116H357.53Z" fill="#1D1D1B"/>
<path d="M403.63 159L404.63 167H399L397.54 161.25C394.63 165.34 389.98 168.04 383.68 168.04C372.68 168.04 365.44 159.65 365.44 148.97C365.44 138.29 372.65 129.77 383.68 129.77C386.296 129.677 388.897 130.214 391.262 131.337C393.627 132.459 395.688 134.134 397.27 136.22V130.95H403.64L403.63 159ZM384.7 162.2C392.4 162.2 397.46 156.44 397.46 148.95C397.46 141.46 392.4 135.57 384.7 135.57C376.7 135.57 371.95 141.47 371.95 148.95C371.95 156.43 376.73 162.2 384.7 162.2Z" fill="#1D1D1B"/>
<path d="M457.36 140.29L451.26 142.58C450.99 137.93 447.73 135.02 442.26 135.02C437.34 135.02 434.43 137.38 434.43 140.43C434.43 148.95 457.86 142.85 457.86 157C457.86 164.07 451.86 168 442.86 168C433.57 168 427.75 163.43 426.64 156.91L432.88 154.27C433.16 159.75 437.04 162.73 442.88 162.73C447.46 162.73 451 161.14 451 157.39C451 148.93 427.84 155.25 427.84 140.82C427.84 134.37 434.43 129.73 442.26 129.73C450.64 129.75 456.46 134 457.36 140.29Z" fill="#1D1D1B"/>
<path d="M501.53 159L502.53 167H496.84L495.39 161.25C492.47 165.34 487.83 168.04 481.52 168.04C470.52 168.04 463.29 159.65 463.29 148.97C463.29 138.29 470.5 129.77 481.52 129.77C484.137 129.676 486.737 130.213 489.102 131.336C491.468 132.458 493.528 134.134 495.11 136.22V130.95H501.49L501.53 159ZM482.6 162.2C490.3 162.2 495.36 156.44 495.36 148.95C495.36 141.46 490.3 135.57 482.6 135.57C474.6 135.57 469.84 141.47 469.84 148.95C469.84 156.43 474.63 162.2 482.6 162.2Z" fill="#1D1D1B"/>
<path d="M517.89 130.93V136.06C520.39 131.9 524.27 129.82 529.82 129.82C538.55 129.82 543.54 135.36 543.54 144.73V167H537.17V145.7C537.17 138.97 534.17 135.64 528.36 135.64C521.84 135.64 517.89 139.94 517.89 147.57V167H511.51V130.93H517.89Z" fill="#1D1D1B"/>
<path d="M562.47 120.11V130.93H572.8V136.61H562.47V156.37C562.47 161.3 564.47 162.06 568.36 162.06C569.621 161.996 570.875 161.832 572.11 161.57V167.19C570.572 167.62 568.986 167.852 567.39 167.88C560.11 167.88 556.09 164.97 556.09 157.21V136.61H549.71V130.93H556.09V120.11H562.47Z" fill="#1D1D1B"/>
<path d="M613 148.33C613.02 149.232 612.973 150.135 612.86 151.03H584.51C585.28 158.66 590.13 162.48 596.37 162.48C601.92 162.48 605.66 160.19 607.74 155.4L612.53 159.49C609.27 165.39 602.75 168.02 596.23 168.02C585.23 168.02 577.93 160.19 577.93 149.02C577.93 138.02 585.42 129.75 595.75 129.75C606.5 129.75 613 137.31 613 148.33ZM606.15 146C606.15 139.42 601.99 135.32 595.61 135.32C590.2 135.32 585.61 138.93 584.61 146H606.15ZM599.28 114.46H606.5L598.59 125.89H593L599.28 114.46Z" fill="#1D1D1B"/>
<path d="M672.57 159L673.57 167H667.88L666.43 161.25C663.52 165.34 658.87 168.04 652.56 168.04C641.56 168.04 634.32 159.65 634.32 148.97C634.32 138.29 641.54 129.77 652.56 129.77C655.176 129.676 657.777 130.213 660.142 131.336C662.508 132.458 664.568 134.134 666.15 136.22V130.95H672.53L672.57 159ZM653.64 162.19C661.34 162.19 666.4 156.43 666.4 148.94C666.4 141.45 661.34 135.56 653.64 135.56C645.64 135.56 640.88 141.46 640.88 148.94C640.88 156.42 645.67 162.2 653.64 162.2V162.19Z" fill="#1D1D1B"/>
<path d="M688.93 130.93V136.06C691.43 131.9 695.31 129.82 700.85 129.82C709.59 129.82 714.58 135.36 714.58 144.73V167H708.2V145.7C708.2 138.97 705.2 135.64 699.4 135.64C692.88 135.64 688.93 139.94 688.93 147.57V167H682.55V130.93H688.93Z" fill="#1D1D1B"/>
<path d="M730.39 130.93V167H724V130.93H730.39Z" fill="#1D1D1B"/>
<path d="M746.61 130.93V135.93C747.645 133.999 749.201 132.397 751.102 131.306C753.002 130.215 755.17 129.68 757.36 129.76C759.667 129.662 761.952 130.24 763.934 131.424C765.917 132.607 767.511 134.343 768.52 136.42C770.6 132.6 774.69 129.76 780.45 129.76C788.15 129.76 793.21 134.61 793.21 143.69V167H786.83V144.93C786.83 138.55 783.99 135.57 778.92 135.57C773.03 135.57 769.92 139.73 769.92 146.57V167H763.54V145.07C763.54 138.55 760.63 135.57 755.71 135.57C749.71 135.57 746.71 140.29 746.62 147.43V167H740.24V130.93H746.61Z" fill="#1D1D1B"/>
<path d="M838.62 159L839.62 167H834L832.55 161.25C829.6 165.32 825 168 818.65 168C807.65 168 800.41 159.61 800.41 148.93C800.41 138.25 807.62 129.73 818.65 129.73C821.267 129.636 823.867 130.173 826.232 131.296C828.598 132.418 830.658 134.094 832.24 136.18V130.91H838.62V159ZM819.69 162.19C827.39 162.19 832.45 156.43 832.45 148.94C832.45 141.45 827.39 135.56 819.69 135.56C811.69 135.56 806.93 141.46 806.93 148.94C806.93 156.42 811.72 162.2 819.69 162.2V162.19Z" fill="#1D1D1B"/>
<path d="M855.33 116V167H849V116H855.33Z" fill="#1D1D1B"/>
<path d="M898.31 148.33C898.33 149.232 898.283 150.135 898.17 151.03H869.81C870.58 158.66 875.43 162.48 881.67 162.48C887.22 162.48 890.96 160.19 893.04 155.4L897.83 159.49C894.57 165.39 888.05 168.02 881.53 168.02C870.53 168.02 863.23 160.19 863.23 149.02C863.23 138.02 870.72 129.75 881.05 129.75C891.79 129.75 898.31 137.31 898.31 148.33ZM891.45 146.04C891.45 139.46 887.29 135.36 880.91 135.36C875.5 135.36 870.91 138.97 869.91 146.04H891.45Z" fill="#1D1D1B"/>
<path d="M469.57 45.63C472.017 45.63 474 43.6466 474 41.2C474 38.7534 472.017 36.77 469.57 36.77C467.123 36.77 465.14 38.7534 465.14 41.2C465.14 43.6466 467.123 45.63 469.57 45.63Z" fill="#1D1D1B"/>
<path d="M727.28 124.13C729.727 124.13 731.71 122.147 731.71 119.7C731.71 117.253 729.727 115.27 727.28 115.27C724.833 115.27 722.85 117.253 722.85 119.7C722.85 122.147 724.833 124.13 727.28 124.13Z" fill="#1D1D1B"/>
<path d="M595.54 45.63C597.987 45.63 599.97 43.6466 599.97 41.2C599.97 38.7534 597.987 36.77 595.54 36.77C593.093 36.77 591.11 38.7534 591.11 41.2C591.11 43.6466 593.093 45.63 595.54 45.63Z" fill="#1D1D1B"/>
<path d="M906.28 45.63C908.727 45.63 910.71 43.6466 910.71 41.2C910.71 38.7534 908.727 36.77 906.28 36.77C903.833 36.77 901.85 38.7534 901.85 41.2C901.85 43.6466 903.833 45.63 906.28 45.63Z" fill="#1D1D1B"/>
</svg>
